<?xml version="1.0" encoding="utf-8"?>
<!-- Generator: Adobe Illustrator 26.5.0, SVG Export Plug-In . SVG Version: 6.00 Build 0)  -->
<svg version="1.1" id="Layer_1" xmlns="http://www.w3.org/2000/svg" xmlns:xlink="http://www.w3.org/1999/xlink" x="0px" y="0px"
	 viewBox="0 0 146 85" style="enable-background:new 0 0 146 85;" xml:space="preserve">
<style type="text/css">
	.st0{fill:none;stroke:#000000;stroke-width:2.16;stroke-linecap:round;}
	.st1{fill:#333333;}
	.st2{fill:none;stroke:#000000;stroke-width:1.98;stroke-miterlimit:10;}
	.st3{fill:#F2B203;stroke:#000000;stroke-width:1.98;stroke-miterlimit:10;}
	.st4{fill:#004F32;stroke:#000000;stroke-width:1.98;stroke-miterlimit:10;}
	.st5{fill:#FF6666;stroke:#000000;stroke-width:1.98;stroke-miterlimit:10;}
	.st6{fill:#00AA6C;stroke:#000000;stroke-width:1.98;stroke-miterlimit:10;}
</style>
<line class="st0" x1="13" y1="83.1" x2="144.4" y2="83.1"/>
<line class="st0" x1="5.5" y1="83.1" x2="10.1" y2="83.1"/>
<line class="st0" x1="2.6" y1="83.1" x2="1.5" y2="83.1"/>
<path class="st1" d="M49.1,77.9c0,0.9-0.4,1.7-1,2.4s-1.5,1-2.4,1c-0.9,0-1.7-0.4-2.4-1s-1-1.5-1-2.4"/>
<path class="st2" d="M49.1,77.9c0,0.9-0.4,1.7-1,2.4s-1.5,1-2.4,1c-0.9,0-1.7-0.4-2.4-1s-1-1.5-1-2.4"/>
<path class="st1" d="M102.6,77.9c0,0.9-0.4,1.7-1,2.4s-1.5,1-2.4,1c-0.9,0-1.7-0.4-2.4-1s-1-1.5-1-2.4"/>
<path class="st2" d="M102.6,77.9c0,0.9-0.4,1.7-1,2.4s-1.5,1-2.4,1c-0.9,0-1.7-0.4-2.4-1s-1-1.5-1-2.4"/>
<path class="st3" d="M110.9,11.3H34c-3.6,0-6.5,2.9-6.5,6.5v53.6c0,3.6,2.9,6.5,6.5,6.5h76.9c3.6,0,6.5-2.9,6.5-6.5V17.8
	C117.4,14.2,114.5,11.3,110.9,11.3z"/>
<path class="st2" d="M79.1,3.5h3c0.3,0,0.5,0,0.8,0.1c0.2,0.1,0.5,0.2,0.6,0.4c0.2,0.2,0.3,0.4,0.4,0.6C84,5,84.1,5.2,84.1,5.5v5.8"
	/>
<path class="st2" d="M60.8,11.3V5.5c0-0.5,0.2-1,0.6-1.4c0.4-0.4,0.9-0.6,1.4-0.6h3"/>
<path class="st4" d="M79.1,6L65.8,6l0-5l13.3,0L79.1,6z"/>
<path class="st4" d="M54.9,77.9V11.3h-5v66.7H54.9z"/>
<path class="st4" d="M95.1,77.9V11.3h-5v66.7H95.1z"/>
<path d="M73.8,61l0.9-1.8L71.8,60c-1.8-0.6-3.7-0.7-5.5-0.2c-1.8,0.5-3.4,1.5-4.6,2.9l-2.9,0.8l1.7,1.1c-0.6,0.9-0.8,2-0.6,3.1
	c0.2,1.1,0.9,2,1.8,2.6c0.9,0.6,2,0.8,3.1,0.6c1.1-0.2,2-0.9,2.6-1.8l1.6,1l0.9-1.7c0.5,0.2,1,0.4,1.5,0.4c0.5,0,1.1,0,1.6-0.2
	c0.5-0.2,1-0.4,1.4-0.8s0.8-0.8,1-1.2c0.2-0.5,0.4-1,0.4-1.5c0-0.5,0-1.1-0.2-1.6c-0.2-0.5-0.4-1-0.8-1.4
	C74.7,61.6,74.3,61.3,73.8,61L73.8,61z M64.7,69.4c-0.5,0.1-1.1,0.1-1.6-0.1c-0.5-0.2-1-0.5-1.3-0.9s-0.5-1-0.6-1.5
	c0-0.5,0.1-1.1,0.4-1.6c0.3-0.5,0.7-0.9,1.2-1.1c0.5-0.2,1-0.3,1.6-0.3c0.5,0.1,1.1,0.3,1.5,0.7c0.4,0.4,0.7,0.8,0.9,1.4
	c0.2,0.7,0.1,1.5-0.3,2.1C66,68.8,65.4,69.2,64.7,69.4z M67.9,65.6c-0.3-0.9-0.8-1.6-1.5-2.2c-0.7-0.6-1.6-0.9-2.5-0.9
	c0.8-0.6,1.8-1.1,2.8-1.4c1-0.3,2.1-0.3,3.1-0.2c-0.8,0.5-1.3,1.2-1.7,2.1C67.9,63.8,67.8,64.7,67.9,65.6L67.9,65.6z M72.6,67.3
	c-0.5,0.1-1.1,0.1-1.6-0.1c-0.5-0.2-1-0.5-1.3-0.9c-0.3-0.4-0.5-1-0.6-1.5c0-0.5,0.1-1.1,0.4-1.6c0.3-0.5,0.7-0.9,1.2-1.1
	c0.5-0.2,1-0.3,1.6-0.3c0.5,0.1,1.1,0.3,1.5,0.7c0.4,0.4,0.7,0.8,0.9,1.4c0.2,0.7,0.1,1.5-0.3,2.1C73.9,66.6,73.3,67.1,72.6,67.3z
	 M71.5,63.2c-0.3,0.1-0.5,0.2-0.7,0.4c-0.2,0.2-0.3,0.5-0.3,0.8c0,0.3,0,0.6,0.1,0.8c0.1,0.3,0.3,0.5,0.6,0.6
	c0.2,0.1,0.5,0.2,0.8,0.2c0.3,0,0.6-0.1,0.8-0.3c0.2-0.2,0.4-0.4,0.5-0.7c0.1-0.3,0.1-0.6,0-0.8c-0.1-0.4-0.3-0.7-0.7-0.9
	C72.3,63.2,71.9,63.1,71.5,63.2z M65.4,66.4c0.1,0.2,0.1,0.4,0,0.6c0,0.2-0.1,0.4-0.2,0.5s-0.2,0.3-0.4,0.4
	c-0.2,0.1-0.3,0.2-0.5,0.2c-0.2,0.1-0.4,0.1-0.6,0.1c-0.2,0-0.4-0.1-0.6-0.2c-0.2-0.1-0.3-0.2-0.4-0.4c-0.1-0.2-0.2-0.3-0.3-0.5
	c-0.1-0.2-0.1-0.4,0-0.6c0-0.2,0.1-0.4,0.2-0.5c0.1-0.2,0.2-0.3,0.4-0.4c0.2-0.1,0.3-0.2,0.5-0.2c0.4-0.1,0.8,0,1.1,0.1
	C65.1,65.7,65.3,66,65.4,66.4L65.4,66.4z"/>
<path class="st2" d="M37.4,11.3c0,2.7-1.1,5.2-2.9,7.1c-1.9,1.9-4.4,2.9-7.1,2.9l0,0"/>
<path class="st2" d="M107.4,11.3c0,2.7,1.1,5.2,2.9,7.1c1.9,1.9,4.4,2.9,7.1,2.9l0,0"/>
<path class="st2" d="M37.4,77.9c0-1.3-0.3-2.6-0.8-3.8c-0.5-1.2-1.2-2.3-2.2-3.2c-0.9-0.9-2-1.7-3.2-2.2c-1.2-0.5-2.5-0.8-3.8-0.8"
	/>
<path class="st2" d="M107.4,77.9c0-2.7,1.1-5.2,2.9-7.1c1.9-1.9,4.4-2.9,7.1-2.9"/>
<path class="st5" d="M106.5,61.1c3.7,0,6.7-3,6.7-6.7c0-3.7-3-6.7-6.7-6.7c-3.7,0-6.7,3-6.7,6.7C99.8,58.1,102.8,61.1,106.5,61.1z"
	/>
<path class="st6" d="M98.3,41.9l-17.8-8.2L86,21.9l17.8,8.2L98.3,41.9z"/>
</svg>
